<?xml version="1.0" encoding="utf-8" standalone="no"?>
<!DOCTYPE svg PUBLIC "-//W3C//DTD SVG 1.1//EN"
  "http://www.w3.org/Graphics/SVG/1.1/DTD/svg11.dtd">
<!-- Created with matplotlib (https://matplotlib.org/) -->
<svg height="360pt" version="1.1" viewBox="0 0 360 360" width="360pt" xmlns="http://www.w3.org/2000/svg" xmlns:xlink="http://www.w3.org/1999/xlink">
 <metadata>
  <rdf:RDF xmlns:cc="http://creativecommons.org/ns#" xmlns:dc="http://purl.org/dc/elements/1.1/" xmlns:rdf="http://www.w3.org/1999/02/22-rdf-syntax-ns#">
   <cc:Work>
    <dc:type rdf:resource="http://purl.org/dc/dcmitype/StillImage"/>
    <dc:date>2021-09-27T17:19:45.627906</dc:date>
    <dc:format>image/svg+xml</dc:format>
    <dc:creator>
     <cc:Agent>
      <dc:title>Matplotlib v3.3.4, https://matplotlib.org/</dc:title>
     </cc:Agent>
    </dc:creator>
   </cc:Work>
  </rdf:RDF>
 </metadata>
 <defs>
  <style type="text/css">*{stroke-linecap:butt;stroke-linejoin:round;}</style>
 </defs>
 <g id="figure_1">
  <g id="patch_1">
   <path d="M 0 360 
L 360 360 
L 360 0 
L 0 0 
z
" style="fill:#ffffff;"/>
  </g>
  <g id="axes_1">
   <g id="patch_2">
    <path d="M 25.55 328.2 
L 349.2 328.2 
L 349.2 10.8 
L 25.55 10.8 
z
" style="fill:#ffffff;"/>
   </g>
   <g id="matplotlib.axis_1">
    <g id="xtick_1">
     <g id="text_1">
      <!-- 1 -->
      <g style="fill:#262626;" transform="translate(98.716868 345.220937)scale(0.14 -0.14)">
       <defs>
        <path d="M 37.25 0 
L 28.46875 0 
L 28.46875 56 
Q 25.296875 52.984375 20.140625 49.953125 
Q 14.984375 46.921875 10.890625 45.40625 
L 10.890625 53.90625 
Q 18.265625 57.375 23.78125 62.296875 
Q 29.296875 67.234375 31.59375 71.875 
L 37.25 71.875 
z
" id="ArialMT-49"/>
       </defs>
       <use xlink:href="#ArialMT-49"/>
      </g>
     </g>
    </g>
    <g id="xtick_2">
     <g id="text_2">
      <!-- 2 -->
      <g style="fill:#262626;" transform="translate(175.776391 345.220937)scale(0.14 -0.14)">
       <defs>
        <path d="M 50.34375 8.453125 
L 50.34375 0 
L 3.03125 0 
Q 2.9375 3.171875 4.046875 6.109375 
Q 5.859375 10.9375 9.828125 15.625 
Q 13.8125 20.3125 21.34375 26.46875 
Q 33.015625 36.03125 37.109375 41.625 
Q 41.21875 47.21875 41.21875 52.203125 
Q 41.21875 57.421875 37.46875 61 
Q 33.734375 64.59375 27.734375 64.59375 
Q 21.390625 64.59375 17.578125 60.78125 
Q 13.765625 56.984375 13.71875 50.25 
L 4.6875 51.171875 
Q 5.609375 61.28125 11.65625 66.578125 
Q 17.71875 71.875 27.9375 71.875 
Q 38.234375 71.875 44.234375 66.15625 
Q 50.25 60.453125 50.25 52 
Q 50.25 47.703125 48.484375 43.546875 
Q 46.734375 39.40625 42.65625 34.8125 
Q 38.578125 30.21875 29.109375 22.21875 
Q 21.1875 15.578125 18.9375 13.203125 
Q 16.703125 10.84375 15.234375 8.453125 
z
" id="ArialMT-50"/>
       </defs>
       <use xlink:href="#ArialMT-50"/>
      </g>
     </g>
    </g>
    <g id="xtick_3">
     <g id="text_3">
      <!-- 3 -->
      <g style="fill:#262626;" transform="translate(252.835915 345.220937)scale(0.14 -0.14)">
       <defs>
        <path d="M 4.203125 18.890625 
L 12.984375 20.0625 
Q 14.5 12.59375 18.140625 9.296875 
Q 21.78125 6 27 6 
Q 33.203125 6 37.46875 10.296875 
Q 41.75 14.59375 41.75 20.953125 
Q 41.75 27 37.796875 30.921875 
Q 33.84375 34.859375 27.734375 34.859375 
Q 25.25 34.859375 21.53125 33.890625 
L 22.515625 41.609375 
Q 23.390625 41.5 23.921875 41.5 
Q 29.546875 41.5 34.03125 44.421875 
Q 38.53125 47.359375 38.53125 53.46875 
Q 38.53125 58.296875 35.25 61.46875 
Q 31.984375 64.65625 26.8125 64.65625 
Q 21.6875 64.65625 18.265625 61.421875 
Q 14.84375 58.203125 13.875 51.765625 
L 5.078125 53.328125 
Q 6.6875 62.15625 12.390625 67.015625 
Q 18.109375 71.875 26.609375 71.875 
Q 32.46875 71.875 37.390625 69.359375 
Q 42.328125 66.84375 44.9375 62.5 
Q 47.5625 58.15625 47.5625 53.265625 
Q 47.5625 48.640625 45.0625 44.828125 
Q 42.578125 41.015625 37.703125 38.765625 
Q 44.046875 37.3125 47.5625 32.6875 
Q 51.078125 28.078125 51.078125 21.140625 
Q 51.078125 11.765625 44.234375 5.25 
Q 37.40625 -1.265625 26.953125 -1.265625 
Q 17.53125 -1.265625 11.296875 4.34375 
Q 5.078125 9.96875 4.203125 18.890625 
z
" id="ArialMT-51"/>
       </defs>
       <use xlink:href="#ArialMT-51"/>
      </g>
     </g>
    </g>
    <g id="xtick_4">
     <g id="text_4">
      <!-- 4 -->
      <g style="fill:#262626;" transform="translate(329.895439 345.220937)scale(0.14 -0.14)">
       <defs>
        <path d="M 32.328125 0 
L 32.328125 17.140625 
L 1.265625 17.140625 
L 1.265625 25.203125 
L 33.9375 71.578125 
L 41.109375 71.578125 
L 41.109375 25.203125 
L 50.78125 25.203125 
L 50.78125 17.140625 
L 41.109375 17.140625 
L 41.109375 0 
z
M 32.328125 25.203125 
L 32.328125 57.46875 
L 9.90625 25.203125 
z
" id="ArialMT-52"/>
       </defs>
       <use xlink:href="#ArialMT-52"/>
      </g>
     </g>
    </g>
   </g>
   <g id="matplotlib.axis_2">
    <g id="ytick_1">
     <g id="text_5">
      <!-- 0 -->
      <g style="fill:#262626;" transform="translate(10.764687 333.210469)scale(0.14 -0.14)">
       <defs>
        <path d="M 4.15625 35.296875 
Q 4.15625 48 6.765625 55.734375 
Q 9.375 63.484375 14.515625 67.671875 
Q 19.671875 71.875 27.484375 71.875 
Q 33.25 71.875 37.59375 69.546875 
Q 41.9375 67.234375 44.765625 62.859375 
Q 47.609375 58.5 49.21875 52.21875 
Q 50.828125 45.953125 50.828125 35.296875 
Q 50.828125 22.703125 48.234375 14.96875 
Q 45.65625 7.234375 40.5 3 
Q 35.359375 -1.21875 27.484375 -1.21875 
Q 17.140625 -1.21875 11.234375 6.203125 
Q 4.15625 15.140625 4.15625 35.296875 
z
M 13.1875 35.296875 
Q 13.1875 17.671875 17.3125 11.828125 
Q 21.4375 6 27.484375 6 
Q 33.546875 6 37.671875 11.859375 
Q 41.796875 17.71875 41.796875 35.296875 
Q 41.796875 52.984375 37.671875 58.78125 
Q 33.546875 64.59375 27.390625 64.59375 
Q 21.34375 64.59375 17.71875 59.46875 
Q 13.1875 52.9375 13.1875 35.296875 
z
" id="ArialMT-48"/>
       </defs>
       <use xlink:href="#ArialMT-48"/>
      </g>
     </g>
    </g>
    <g id="ytick_2">
     <g id="text_6">
      <!-- 1 -->
      <g style="fill:#262626;" transform="translate(10.764687 257.63904)scale(0.14 -0.14)">
       <use xlink:href="#ArialMT-49"/>
      </g>
     </g>
    </g>
    <g id="ytick_3">
     <g id="text_7">
      <!-- 2 -->
      <g style="fill:#262626;" transform="translate(10.764687 182.067612)scale(0.14 -0.14)">
       <use xlink:href="#ArialMT-50"/>
      </g>
     </g>
    </g>
    <g id="ytick_4">
     <g id="text_8">
      <!-- 3 -->
      <g style="fill:#262626;" transform="translate(10.764687 106.496183)scale(0.14 -0.14)">
       <use xlink:href="#ArialMT-51"/>
      </g>
     </g>
    </g>
    <g id="ytick_5">
     <g id="text_9">
      <!-- 4 -->
      <g style="fill:#262626;" transform="translate(10.764687 30.924754)scale(0.14 -0.14)">
       <use xlink:href="#ArialMT-52"/>
      </g>
     </g>
    </g>
   </g>
   <g id="PathCollection_1">
    <defs>
     <path d="M 0 6.123724 
C 1.624031 6.123724 3.181764 5.47849 4.330127 4.330127 
C 5.47849 3.181764 6.123724 1.624031 6.123724 0 
C 6.123724 -1.624031 5.47849 -3.181764 4.330127 -4.330127 
C 3.181764 -5.47849 1.624031 -6.123724 0 -6.123724 
C -1.624031 -6.123724 -3.181764 -5.47849 -4.330127 -4.330127 
C -5.47849 -3.181764 -6.123724 -1.624031 -6.123724 0 
C -6.123724 1.624031 -5.47849 3.181764 -4.330127 4.330127 
C -3.181764 5.47849 -1.624031 6.123724 0 6.123724 
z
" id="m2e3c5a8d03" style="stroke:#000000;stroke-opacity:0.7;stroke-width:0.979796;"/>
    </defs>
    <g clip-path="url(#p3e497c00af)">
     <use style="fill:#8c000f;fill-opacity:0.7;stroke:#000000;stroke-opacity:0.7;stroke-width:0.979796;" x="102.609524" xlink:href="#m2e3c5a8d03" y="252.628571"/>
     <use style="fill:#8c000f;fill-opacity:0.7;stroke:#000000;stroke-opacity:0.7;stroke-width:0.979796;" x="179.669048" xlink:href="#m2e3c5a8d03" y="101.485714"/>
     <use style="fill:#8c000f;fill-opacity:0.7;stroke:#000000;stroke-opacity:0.7;stroke-width:0.979796;" x="141.139286" xlink:href="#m2e3c5a8d03" y="139.271429"/>
    </g>
   </g>
   <g id="patch_3">
    <path d="M 25.55 328.2 
L 25.55 10.8 
" style="fill:none;stroke:#262626;stroke-linecap:square;stroke-linejoin:miter;stroke-width:0.8;"/>
   </g>
   <g id="patch_4">
    <path d="M 25.55 328.2 
L 349.2 328.2 
" style="fill:none;stroke:#262626;stroke-linecap:square;stroke-linejoin:miter;stroke-width:0.8;"/>
   </g>
  </g>
 </g>
 <defs>
  <clipPath id="p3e497c00af">
   <rect height="317.4" width="323.65" x="25.55" y="10.8"/>
  </clipPath>
 </defs>
</svg>
